<svg width="350.000000" height="35.000000" viewBox="0 0 350 35" fill="none" xmlns="http://www.w3.org/2000/svg" xmlns:xlink="http://www.w3.org/1999/xlink">
	<desc>
			Created with Pixso.
	</desc>
	<defs/>
	<path id="Marcelo Ferreira" d="M299.58 5.07Q300.5 5.78 301.96 5.78Q303.39 5.78 304.3 5.09Q304.43 4.99 304.55 4.89Q304.89 4.57 305.1 4.19Q305.51 3.49 305.51 2.55Q305.51 1.63 305.1 0.94Q304.87 0.56 304.52 0.26Q304.38 0.13 304.22 0.02Q303.31 -0.61 301.96 -0.61Q300.45 -0.61 299.52 0.12Q299.43 0.19 299.35 0.26Q299.04 0.54 298.82 0.89Q298.39 1.59 298.39 2.55Q298.39 3.49 298.8 4.19Q299.02 4.57 299.35 4.89Q299.46 4.99 299.58 5.07ZM31.36 0.36Q30.66 -0.08 29.69 -0.08Q29.22 -0.08 28.8 0.06Q27.64 0.46 26.86 1.98L16.26 22.29L5.59 1.98Q4.87 0.56 3.75 0.12Q3.25 -0.08 2.66 -0.08Q1.7 -0.08 1.02 0.35Q0.75 0.52 0.53 0.76Q0.39 0.91 0.27 1.07Q-0.27 1.84 -0.27 2.99L-0.27 31.41Q-0.27 32.65 0.34 33.4Q0.39 33.46 0.45 33.53Q0.61 33.7 0.81 33.84Q1.46 34.29 2.43 34.29Q3.3 34.29 3.93 33.89Q4.19 33.73 4.41 33.49Q4.57 33.32 4.69 33.13Q5.16 32.42 5.16 31.41L5.16 11.87L13.37 27.08Q13.95 28.18 14.62 28.66Q14.81 28.8 15.02 28.9Q15.55 29.14 16.2 29.14Q16.85 29.14 17.38 28.89Q17.59 28.78 17.78 28.64Q18.46 28.14 19.03 27.08L27.19 11.62L27.19 31.41Q27.19 32.65 27.8 33.4Q27.85 33.46 27.91 33.53Q28.07 33.7 28.27 33.84Q28.92 34.29 29.89 34.29Q30.8 34.29 31.45 33.88Q31.69 33.73 31.89 33.53Q32.02 33.4 32.13 33.25Q32.66 32.53 32.66 31.41L32.66 2.99Q32.66 1.88 32.15 1.13Q32.01 0.93 31.84 0.76Q31.62 0.53 31.36 0.36ZM133.47 33.85Q134.2 34.29 135.19 34.29Q136.21 34.29 136.95 33.84Q137.16 33.71 137.35 33.55Q137.55 33.38 137.7 33.17Q138.22 32.48 138.22 31.41L138.22 2.75Q138.22 1.66 137.69 0.99Q137.54 0.8 137.35 0.64Q137.18 0.5 136.99 0.38Q136.23 -0.08 135.19 -0.08Q134.17 -0.08 133.43 0.37Q133.24 0.49 133.06 0.64Q132.9 0.78 132.77 0.94Q132.22 1.63 132.22 2.75L132.22 31.41Q132.22 32.52 132.75 33.22Q132.89 33.4 133.06 33.55Q133.25 33.72 133.47 33.85ZM186.91 33.84Q187.63 34.29 188.61 34.29Q189.65 34.29 190.37 33.81Q190.61 33.64 190.82 33.42Q191 33.22 191.15 33Q191.64 32.24 191.64 31.16L191.64 19.26L204.41 19.26Q206.14 19.26 206.85 18.42Q207.34 17.82 207.34 16.82Q207.34 15.77 206.82 15.16Q206.11 14.32 204.41 14.32L191.64 14.32L191.64 5.1L205.37 5.1Q207.1 5.1 207.81 4.25Q208.3 3.65 208.3 2.65Q208.3 1.6 207.78 0.99Q207.07 0.15 205.37 0.15L188.52 0.15Q187.3 0.15 186.54 0.74Q186.43 0.83 186.33 0.92Q186.23 1.03 186.14 1.14Q185.54 1.87 185.54 3.08L185.54 31.16Q185.54 32.2 186.01 32.94Q186.17 33.2 186.39 33.42Q186.63 33.67 186.91 33.84ZM56.93 12.37Q54.55 9.95 49.66 9.95Q47.4 9.95 45.07 10.48Q42.75 11 41.06 11.92Q40.1 12.44 39.69 13.04Q39.64 13.12 39.6 13.19Q39.29 13.74 39.29 14.46Q39.29 15.33 39.7 15.91Q39.77 16 39.84 16.09Q40.08 16.36 40.38 16.51Q40.77 16.71 41.26 16.71Q41.84 16.71 43.08 16.09Q45.05 15.33 46.49 14.92Q47.93 14.51 49.32 14.51Q51.57 14.51 52.58 15.58Q53.59 16.66 53.59 19.02L53.59 20.12L52.39 20.12Q47.17 20.12 44.19 20.8Q41.21 21.47 39.89 22.96Q39.84 23.01 39.79 23.07Q38.57 24.54 38.57 27.03Q38.57 28.21 38.93 29.27Q39.2 30.06 39.67 30.78Q39.95 31.21 40.29 31.59Q41.27 32.71 42.7 33.42Q42.9 33.52 43.1 33.61Q44.86 34.38 46.97 34.38Q49.07 34.38 50.7 33.51Q50.86 33.42 51.02 33.33Q51.92 32.79 52.57 32.04Q53.19 31.32 53.59 30.4L53.59 31.45Q53.59 32.3 53.96 32.93Q54.13 33.22 54.39 33.47Q54.62 33.69 54.89 33.84Q55.54 34.23 56.43 34.23Q57.62 34.23 58.36 33.65Q58.45 33.57 58.53 33.49Q58.69 33.34 58.81 33.17Q59.31 32.49 59.31 31.45L59.31 19.73Q59.31 14.8 56.93 12.37ZM87.55 32.89Q90.22 34.38 93.72 34.38Q95 34.38 96.24 34.17Q97 34.04 97.75 33.83Q99.72 33.28 101.21 32.32Q102.03 31.84 102.38 31.24Q102.41 31.2 102.43 31.17Q102.75 30.58 102.75 29.82Q102.75 28.95 102.35 28.33Q102.29 28.23 102.22 28.15Q101.88 27.72 101.45 27.56Q101.2 27.47 100.92 27.47Q100.39 27.47 99.86 27.69Q99.34 27.9 98.62 28.33Q97.47 28.96 96.53 29.32Q95.6 29.67 94.39 29.67Q92.23 29.67 90.79 28.65Q90.25 28.27 89.81 27.74Q88.2 25.79 88.2 22.18Q88.2 18.54 89.81 16.59Q90.26 16.05 90.81 15.66Q92.25 14.65 94.39 14.65Q95.64 14.65 96.61 15.01Q97.57 15.37 98.62 16Q99.19 16.33 99.77 16.58Q100.34 16.82 100.87 16.82Q101.28 16.82 101.62 16.65Q101.95 16.49 102.2 16.17Q102.7 15.51 102.7 14.46Q102.7 13.99 102.55 13.57Q102.23 12.62 101.16 11.92Q99.72 11 97.82 10.48Q95.93 9.95 94.06 9.95Q90.68 9.95 88.02 11.34Q87.9 11.41 87.77 11.48Q86.57 12.16 85.61 13.08Q84.38 14.25 83.53 15.83Q82.02 18.63 82.02 22.29Q82.02 25.93 83.44 28.67Q84.22 30.15 85.36 31.26Q86.32 32.21 87.55 32.89ZM126.07 27.73Q125.73 27.56 125.3 27.56Q124.63 27.56 123.19 28.33Q121.71 29 120.52 29.39Q119.35 29.78 117.81 29.78Q114.89 29.78 113.32 28.32Q113.26 28.27 113.21 28.22Q111.63 26.65 111.33 23.34L125.5 23.34Q126.3 23.34 126.74 22.95Q127.32 22.44 127.32 21.28Q127.32 17.82 126.02 15.28Q125.19 13.63 123.91 12.47Q123.21 11.83 122.37 11.34Q120.03 9.95 116.85 9.95Q114.22 9.95 112.02 10.92Q111.46 11.17 110.92 11.48Q109.91 12.08 109.08 12.86Q107.75 14.1 106.87 15.81Q105.44 18.58 105.44 22.18Q105.44 26.81 107.64 29.84Q108.14 30.52 108.74 31.12Q109.33 31.7 109.99 32.17Q113.06 34.38 117.72 34.38Q119.6 34.38 121.66 33.83Q123.72 33.28 125.35 32.37Q126.76 31.57 127.05 30.47Q127.13 30.18 127.13 29.87Q127.13 28.82 126.63 28.19Q126.38 27.89 126.07 27.73ZM148.8 32.89Q151.51 34.38 155.12 34.38Q158.72 34.38 161.42 32.89Q162.68 32.21 163.66 31.25Q164.82 30.13 165.61 28.63Q167.07 25.84 167.07 22.14Q167.07 18.44 165.61 15.69Q164.83 14.23 163.71 13.12Q162.7 12.14 161.42 11.44Q158.72 9.95 155.12 9.95Q151.51 9.95 148.8 11.44Q147.59 12.1 146.62 13.03Q145.43 14.17 144.61 15.69Q143.12 18.44 143.12 22.14Q143.12 25.84 144.61 28.63Q145.44 30.19 146.66 31.34Q147.62 32.24 148.8 32.89ZM231.04 27.73Q230.7 27.56 230.28 27.56Q229.61 27.56 228.17 28.33Q226.68 29 225.5 29.39Q224.33 29.78 222.79 29.78Q219.87 29.78 218.29 28.32Q218.24 28.27 218.19 28.22Q216.6 26.65 216.31 23.34L230.48 23.34Q231.27 23.34 231.72 22.95Q232.29 22.44 232.29 21.28Q232.29 17.82 230.99 15.28Q230.16 13.63 228.89 12.47Q228.19 11.83 227.35 11.34Q225.01 9.95 221.83 9.95Q219.2 9.95 216.99 10.92Q216.43 11.17 215.9 11.48Q214.89 12.08 214.06 12.86Q212.73 14.1 211.85 15.81Q210.42 18.58 210.42 22.18Q210.42 26.81 212.62 29.84Q213.11 30.52 213.72 31.12Q214.31 31.7 214.96 32.17Q218.03 34.38 222.7 34.38Q224.57 34.38 226.63 33.83Q228.7 33.28 230.33 32.37Q231.73 31.57 232.03 30.47Q232.11 30.18 232.11 29.87Q232.11 28.82 231.6 28.19Q231.36 27.89 231.04 27.73ZM292.82 27.73Q292.48 27.56 292.05 27.56Q291.39 27.56 289.95 28.33Q288.46 29 287.27 29.39Q286.1 29.78 284.57 29.78Q281.64 29.78 280.07 28.32Q280.01 28.27 279.96 28.22Q278.38 26.65 278.09 23.34L292.25 23.34Q293.05 23.34 293.49 22.95Q294.07 22.44 294.07 21.28Q294.07 17.82 292.77 15.28Q291.94 13.63 290.66 12.47Q289.96 11.83 289.13 11.34Q286.78 9.95 283.6 9.95Q280.97 9.95 278.77 10.92Q278.21 11.17 277.68 11.48Q276.67 12.08 275.83 12.86Q274.51 14.1 273.62 15.81Q272.19 18.58 272.19 22.18Q272.19 26.81 274.39 29.84Q274.89 30.52 275.5 31.12Q276.08 31.7 276.74 32.17Q279.81 34.38 284.47 34.38Q286.35 34.38 288.41 33.83Q290.47 33.28 292.1 32.37Q293.51 31.57 293.8 30.47Q293.88 30.18 293.88 29.87Q293.88 28.82 293.38 28.19Q293.14 27.89 292.82 27.73ZM346.9 12.37Q344.52 9.95 339.63 9.95Q337.37 9.95 335.04 10.48Q332.72 11 331.03 11.92Q330.07 12.44 329.66 13.04Q329.61 13.12 329.57 13.19Q329.26 13.74 329.26 14.46Q329.26 15.33 329.67 15.91Q329.74 16 329.81 16.09Q330.05 16.36 330.35 16.51Q330.74 16.71 331.23 16.71Q331.8 16.71 333.05 16.09Q335.02 15.33 336.46 14.92Q337.9 14.51 339.29 14.51Q341.54 14.51 342.55 15.58Q343.56 16.66 343.56 19.02L343.56 20.12L342.36 20.12Q337.14 20.12 334.16 20.8Q331.18 21.47 329.86 22.96Q329.81 23.01 329.76 23.07Q328.53 24.54 328.53 27.03Q328.53 28.21 328.89 29.27Q329.16 30.06 329.64 30.78Q329.92 31.21 330.26 31.59Q331.24 32.71 332.67 33.42Q332.87 33.52 333.07 33.61Q334.83 34.38 336.94 34.38Q339.04 34.38 340.67 33.51Q340.83 33.42 340.99 33.33Q341.89 32.79 342.54 32.04Q343.16 31.32 343.56 30.4L343.56 31.45Q343.56 32.3 343.93 32.93Q344.1 33.22 344.35 33.47Q344.59 33.69 344.85 33.84Q345.51 34.23 346.39 34.23Q347.59 34.23 348.33 33.65Q348.42 33.57 348.5 33.49Q348.66 33.34 348.78 33.17Q349.28 32.49 349.28 31.45L349.28 19.73Q349.28 14.8 346.9 12.37ZM80.36 10.48Q79.66 9.95 78.5 10.04L77.83 10.09Q76.48 10.17 75.28 10.64Q74.52 10.94 73.83 11.39Q73.28 11.74 72.82 12.17Q71.75 13.18 71.12 14.65L71.12 12.73Q71.12 11.69 70.62 11.04Q70.5 10.88 70.35 10.75Q70.22 10.63 70.09 10.54Q69.38 10.04 68.33 10.04Q67.43 10.04 66.75 10.42Q66.48 10.57 66.24 10.77Q66.05 10.94 65.9 11.14Q65.4 11.8 65.4 12.83L65.4 31.41Q65.4 32.52 65.94 33.22Q66.07 33.4 66.24 33.55Q66.44 33.72 66.65 33.85Q67.38 34.29 68.38 34.29Q69.39 34.29 70.13 33.84Q70.34 33.71 70.53 33.55Q70.73 33.38 70.89 33.17Q71.4 32.48 71.4 31.41L71.4 21.33Q71.4 19.3 72.31 17.83Q72.5 17.53 72.72 17.25Q72.8 17.15 72.89 17.06Q74.22 15.59 76.87 15.33L78.31 15.17Q79.94 14.99 80.56 14.37Q81.2 13.73 81.2 12.44Q81.2 11.37 80.67 10.76Q80.58 10.66 80.47 10.57Q80.42 10.52 80.36 10.48ZM252.16 10.48Q251.46 9.95 250.29 10.04L249.63 10.09Q248.28 10.17 247.08 10.64Q246.32 10.94 245.62 11.39Q245.07 11.74 244.61 12.17Q243.54 13.18 242.91 14.65L242.91 12.73Q242.91 11.69 242.41 11.04Q242.29 10.88 242.14 10.75Q242.01 10.63 241.88 10.54Q241.17 10.04 240.12 10.04Q239.23 10.04 238.54 10.42Q238.27 10.57 238.04 10.77Q237.84 10.94 237.69 11.14Q237.19 11.8 237.19 12.83L237.19 31.41Q237.19 32.52 237.73 33.22Q237.87 33.4 238.04 33.55Q238.23 33.72 238.44 33.85Q239.17 34.29 240.17 34.29Q241.18 34.29 241.93 33.84Q242.14 33.71 242.33 33.55Q242.53 33.38 242.68 33.17Q243.19 32.48 243.19 31.41L243.19 21.33Q243.19 19.3 244.1 17.83Q244.29 17.53 244.52 17.25Q244.6 17.15 244.68 17.06Q246.01 15.59 248.67 15.33L250.11 15.17Q251.74 14.99 252.36 14.37Q252.99 13.73 252.99 12.44Q252.99 11.37 252.46 10.76Q252.37 10.66 252.26 10.57Q252.21 10.52 252.16 10.48ZM270.54 10.48Q269.84 9.95 268.68 10.04L268.01 10.09Q266.66 10.17 265.46 10.64Q264.7 10.94 264 11.39Q263.46 11.74 262.99 12.17Q261.93 13.18 261.29 14.65L261.29 12.73Q261.29 11.69 260.79 11.04Q260.67 10.88 260.52 10.75Q260.4 10.63 260.26 10.54Q259.56 10.04 258.51 10.04Q257.61 10.04 256.92 10.42Q256.66 10.57 256.42 10.77Q256.22 10.94 256.07 11.14Q255.58 11.8 255.58 12.83L255.58 31.41Q255.58 32.52 256.11 33.22Q256.25 33.4 256.42 33.55Q256.61 33.72 256.83 33.85Q257.56 34.29 258.55 34.29Q259.57 34.29 260.31 33.84Q260.52 33.71 260.71 33.55Q260.91 33.38 261.06 33.17Q261.58 32.48 261.58 31.41L261.58 21.33Q261.58 19.3 262.48 17.83Q262.67 17.53 262.9 17.25Q262.98 17.15 263.06 17.06Q264.39 15.59 267.05 15.33L268.49 15.17Q270.12 14.99 270.74 14.37Q271.37 13.73 271.37 12.44Q271.37 11.37 270.84 10.76Q270.75 10.66 270.65 10.57Q270.59 10.52 270.54 10.48ZM326.12 10.48Q325.42 9.95 324.26 10.04L323.59 10.09Q322.24 10.17 321.04 10.64Q320.28 10.94 319.59 11.39Q319.04 11.74 318.58 12.17Q317.51 13.18 316.88 14.65L316.88 12.73Q316.88 11.69 316.38 11.04Q316.26 10.88 316.11 10.75Q315.98 10.63 315.85 10.54Q315.14 10.04 314.09 10.04Q313.2 10.04 312.51 10.42Q312.24 10.57 312 10.77Q311.81 10.94 311.66 11.14Q311.16 11.8 311.16 12.83L311.16 31.41Q311.16 32.52 311.7 33.22Q311.83 33.4 312 33.55Q312.2 33.72 312.41 33.85Q313.14 34.29 314.14 34.29Q315.15 34.29 315.89 33.84Q316.1 33.71 316.29 33.55Q316.49 33.38 316.65 33.17Q317.16 32.48 317.16 31.41L317.16 21.33Q317.16 19.3 318.07 17.83Q318.26 17.53 318.48 17.25Q318.56 17.15 318.65 17.06Q319.98 15.59 322.63 15.33L324.07 15.17Q325.7 14.99 326.32 14.37Q326.96 13.73 326.96 12.44Q326.96 11.37 326.43 10.76Q326.34 10.66 326.23 10.57Q326.18 10.52 326.12 10.48ZM300.22 33.85Q300.95 34.29 301.95 34.29Q302.96 34.29 303.7 33.84Q303.91 33.71 304.1 33.55Q304.3 33.38 304.45 33.17Q304.97 32.48 304.97 31.41L304.97 12.88Q304.97 11.79 304.44 11.11Q304.29 10.93 304.1 10.77Q303.93 10.62 303.74 10.5Q302.98 10.04 301.95 10.04Q300.93 10.04 300.19 10.5Q299.99 10.62 299.81 10.77Q299.65 10.91 299.52 11.07Q298.97 11.75 298.97 12.88L298.97 31.41Q298.97 32.52 299.51 33.22Q299.64 33.4 299.81 33.55Q300 33.72 300.22 33.85ZM113.97 14.97Q115.23 14.17 117.01 14.17Q118.8 14.17 120 15.01Q120.41 15.3 120.74 15.68Q122.09 17.19 122.19 20.12L111.33 20.12Q111.63 17.24 113.09 15.7Q113.49 15.28 113.97 14.97ZM218.95 14.97Q220.21 14.17 221.98 14.17Q223.78 14.17 224.98 15.01Q225.38 15.3 225.72 15.68Q227.07 17.19 227.16 20.12L216.31 20.12Q216.6 17.24 218.07 15.7Q218.47 15.28 218.95 14.97ZM280.72 14.97Q281.98 14.17 283.76 14.17Q285.56 14.17 286.76 15.01Q287.16 15.3 287.5 15.68Q288.84 17.19 288.94 20.12L278.09 20.12Q278.38 17.24 279.84 15.7Q280.25 15.28 280.72 14.97ZM158.58 28.71Q157.19 29.72 155.07 29.72Q153.02 29.72 151.66 28.75Q151.1 28.36 150.65 27.81Q149.12 25.89 149.12 22.14Q149.12 18.44 150.68 16.5Q151.16 15.89 151.77 15.48Q153.13 14.55 155.12 14.55Q157.1 14.55 158.44 15.48Q159.05 15.89 159.53 16.5Q161.07 18.44 161.07 22.14Q161.07 25.89 159.53 27.81Q159.1 28.33 158.58 28.71ZM50.83 29.43Q49.67 30.06 48.18 30.06Q47.11 30.06 46.28 29.62Q45.86 29.4 45.5 29.07Q45.05 28.66 44.78 28.14Q44.43 27.44 44.43 26.55Q44.43 25.61 44.87 24.96Q45.01 24.77 45.19 24.6Q45.96 23.87 47.73 23.59Q49.51 23.3 52.73 23.3L53.59 23.3L53.59 24.3Q53.59 26.22 52.73 27.6Q52.45 28.06 52.08 28.45Q51.51 29.05 50.83 29.43ZM340.8 29.43Q339.64 30.06 338.14 30.06Q337.08 30.06 336.25 29.62Q335.83 29.4 335.47 29.07Q335.02 28.66 334.75 28.14Q334.39 27.44 334.39 26.55Q334.39 25.61 334.84 24.96Q334.98 24.77 335.16 24.6Q335.93 23.87 337.7 23.59Q339.48 23.3 342.7 23.3L343.56 23.3L343.56 24.3Q343.56 26.22 342.7 27.6Q342.42 28.06 342.05 28.45Q341.48 29.05 340.8 29.43Z" fill="#363636" fill-opacity="1.000000" fill-rule="evenodd"/>
</svg>
